<?xml version="1.0" encoding="utf-8" standalone="no"?>
<?xml-stylesheet href="svg.css" type="text/css"?>
<!-- Generator: Adobe Illustrator 15.0.0, SVG Export Plug-In . SVG Version: 6.00 Build 0)  -->
<!DOCTYPE svg PUBLIC "-//W3C//DTD SVG 1.1//EN" "http://www.w3.org/Graphics/SVG/1.1/DTD/svg11.dtd">
<svg version="1.1" id="Layer_1" xmlns="http://www.w3.org/2000/svg" xmlns:xlink="http://www.w3.org/1999/xlink" x="0px" y="0px"
	 width="228.484px" height="230.941px" viewBox="0 0 228.484 230.941" enable-background="new 0 0 228.484 230.941"
	 xml:space="preserve">
<polygon class="highlight" opacity="0.84" fill="#red" points="114.242,2.667 126.39,17.576 141.782,5.983 149.981,23.343 167.723,15.741 
	171.493,34.542 190.555,31.372 189.679,50.521 208.953,51.967 203.481,70.352 221.846,76.331 212.098,92.883 228.484,103.047 
	215.025,116.804 228.484,130.56 212.098,140.724 221.846,157.277 203.481,163.255 208.953,181.642 189.679,183.087 190.555,202.236 
	171.493,199.066 167.723,217.867 149.981,210.265 141.782,227.623 126.39,216.033 114.242,230.941 102.094,216.033 86.701,227.623 
	78.504,210.265 60.762,217.867 56.991,199.066 37.93,202.236 38.805,183.087 19.532,181.642 25.003,163.255 6.639,157.277 
	16.389,140.724 0,130.56 13.459,116.804 0,103.047 16.389,92.883 6.639,76.331 25.003,70.352 19.532,51.967 38.805,50.521 
	37.93,31.372 56.991,34.542 60.762,15.741 78.504,23.343 86.701,5.983 102.094,17.576 "/>
<ellipse class="shadow" fill="#B8271A" cx="117.909" cy="148.759" rx="74.667" ry="31.955"/>
<ellipse fill="#FFFFFF" cx="115.575" cy="67.544" rx="73.667" ry="33.836"/>
<path class="base" fill="#CCCC66" d="M41.909,68.714c0.475,3.942,7,62.666,9.333,72.666c21,45,83,31.666,83,31.666l2-37.332l37.333,15l3.667-7
	c0,0,12.125-72,11.326-71.591c-1.326,3.591-2.993,5.257-2.993,5.257l-71.333-18.667c0,0,22.263,36.627,23.596,40.96
	C133.172,100.674,58.992,110.214,41.909,68.714z"/>
<polygon class="light-shadow" fill="#AEAF56" points="180.909,101.381 130.242,85.893 113.242,58.714 184.242,78.048 "/>
<polygon class="light-shadow" fill="#AEAF56" points="133.847,92.235 179.575,106.381 177.242,122.714 137.909,109.714 137.838,99.674 "/>
<polygon class="light-shadow" fill="#AEAF56" points="136.975,117.714 176.242,130.714 173.575,150.714 136.242,135.714 "/>
<path fill="#FFFFFF" d="M45.444,101.381c29.131,34,91.18,24.954,91.18,24.954l-0.382,5.38c0,0-63.394,7.186-89.394-19.481
	C46.586,111.347,45.62,102.239,45.444,101.381z"/>
<path fill="#FFFFFF" d="M48.403,123.714c28.839,36,87.036,27,87.036,27l-0.361,6.755c0,0-58.168,5.578-85.389-24.925
	C48.753,126.119,48.897,128.714,48.403,123.714z"/>
</svg>
