<?xml version="1.0" encoding="utf-8" standalone="no"?>
<?xml-stylesheet href="svg.css" type="text/css"?>
<!-- Generator: Adobe Illustrator 15.0.0, SVG Export Plug-In . SVG Version: 6.00 Build 0)  -->
<!DOCTYPE svg PUBLIC "-//W3C//DTD SVG 1.1//EN" "http://www.w3.org/Graphics/SVG/1.1/DTD/svg11.dtd">
<svg version="1.1"
	 id="svg2" xmlns:inkscape="http://www.inkscape.org/namespaces/inkscape" xmlns:svg="http://www.w3.org/2000/svg" xmlns:rdf="http://www.w3.org/1999/02/22-rdf-syntax-ns#" xmlns:dc="http://purl.org/dc/elements/1.1/" xmlns:cc="http://creativecommons.org/ns#"
	 xmlns="http://www.w3.org/2000/svg" xmlns:xlink="http://www.w3.org/1999/xlink" x="0px" y="0px" width="109.025px"
	 height="109.025px" viewBox="0 0 109.025 109.025" enable-background="new 0 0 109.025 109.025" xml:space="preserve">
<g id="g10" transform="matrix(1.25,0,0,-1.25,0,109.025)">
	<g id="g12" transform="scale(0.1,0.1)">
		<path id="path14" inkscape:connector-curvature="0" fill="#ff0000" d="M2231.662,528.991h-151.5v-16.078
			c47.391,0,55.008-10.156,55.008-70.25V334.319c0-60.078-7.617-71.094-55.008-71.094c-36.391,5.078-60.945,24.547-94.805,61.797
			l-38.914,42.305c52.469,9.313,80.398,42.32,80.398,79.57c0,46.547-39.781,82.094-114.266,82.094h-148.969v-16.078
			c47.406,0,55.016-10.156,55.016-70.25V334.319c0-60.078-7.609-71.094-55.016-71.094v-16.078h168.43v16.078
			c-47.391,0-55.008,11.016-55.008,71.094v30.469h14.391l93.938-117.641h246.305c121.039,0,173.508,64.32,173.508,141.352
			C2405.17,465.514,2352.701,528.991,2231.662,528.991L2231.662,528.991z M1877.029,391.038V503.6h34.703
			c38.086,0,55.016-26.234,55.016-56.703c0-29.633-16.93-55.859-55.016-55.859H1877.029z M2234.201,273.382h-5.93
			c-30.469,0-34.703,7.617-34.703,46.563V503.6c0,0,37.242,0,40.633,0c88.016,0,104.102-64.32,104.102-114.266
			C2338.303,337.718,2322.217,273.382,2234.201,273.382"/>
		<path class="base" id="path16" inkscape:connector-curvature="0" fill="#ff0000" d="M61.99,436.108c0-148.078,86.047-276.047,210.852-336.695
			L94.389,588.358C73.631,541.835,61.99,490.35,61.99,436.108z M688.646,454.975c0,46.25-16.617,78.266-30.844,103.172
			c-18.961,30.836-36.75,56.914-36.75,87.75c0,34.383,26.078,66.391,62.828,66.391c1.656,0,3.227-0.195,4.844-0.297
			c-66.563,60.984-155.234,98.219-252.633,98.219c-130.703,0-245.68-67.063-312.57-168.617c8.781-0.281,17.062-0.453,24.078-0.453
			c39.117,0,99.703,4.758,99.703,4.758c20.156,1.18,22.539-28.453,2.398-30.836c0,0-20.273-2.367-42.813-3.555l136.219-405.234
			l81.883,245.539l-58.281,159.695c-20.156,1.188-39.234,3.555-39.234,3.555c-20.172,1.195-17.805,32.016,2.367,30.836
			c0,0,61.773-4.758,98.531-4.758c39.117,0,99.711,4.758,99.711,4.758c20.172,1.18,22.539-28.453,2.383-30.836
			c0,0-20.289-2.367-42.813-3.555L622.85,209.358l37.328,124.688C679.139,382.655,688.646,422.968,688.646,454.975z M442.67,403.382
			L330.404,77.225c33.523-9.859,68.969-15.25,105.688-15.25c43.57,0,85.359,7.516,124.242,21.211c-1,1.602-1.922,3.297-2.688,5.156
			L442.67,403.382z M764.381,615.585c1.609-11.914,2.516-24.703,2.516-38.469c0-37.953-7.109-80.625-28.461-133.992L624.178,112.757
			C735.404,177.6,810.193,298.085,810.193,436.108C810.193,501.155,793.576,562.304,764.381,615.585"/>
		<path class="outline" id="path18" inkscape:connector-curvature="0" fill="#ff0000" d="M-0.002,436.108c0-240.484,195.633-436.109,436.094-436.109
			c240.469,0,436.109,195.625,436.109,436.109c0,240.461-195.641,436.086-436.109,436.086
			C195.631,872.194-0.002,676.569-0.002,436.108z M19.998,436.108c0,229.43,186.664,416.086,416.094,416.086
			c229.438,0,416.109-186.656,416.109-416.086c0-229.445-186.672-416.109-416.109-416.109
			C206.662,19.999,19.998,206.663,19.998,436.108"/>
		<path id="path20" inkscape:connector-curvature="0" fill="#3573A2" d="M1292.201,359.71l58.398,172.68
			c16.93,49.93,9.313,64.313-44.859,64.313v16.938h159.117v-16.938c-53.32,0-66.008-12.695-87.164-74.477l-96.5-289.469h-10.992
			l-86.344,264.922l-88.016-264.922h-11l-93.953,289.469c-20.313,61.781-33.859,74.477-82.945,74.477v16.938h187.898v-16.938
			c-49.945,0-63.484-11.844-45.703-64.313l56.703-172.68l85.477,253.93h16.094L1292.201,359.71"/>
		<path id="path22" inkscape:connector-curvature="0" fill="#3573A2" d="M1579.951,236.155
			c-93.094,0-169.273,68.555-169.273,152.344c0,82.945,76.18,151.508,169.273,151.508c93.109,0,169.281-68.563,169.281-151.508
			C1749.232,304.71,1673.06,236.155,1579.951,236.155z M1579.951,513.757c-77.859,0-104.953-70.242-104.953-125.258
			c0-55.859,27.094-125.273,104.953-125.273c78.719,0,105.797,69.414,105.797,125.273
			C1685.748,443.514,1658.67,513.757,1579.951,513.757"/>
		<path id="path24" inkscape:connector-curvature="0" fill="#403F41" d="M2614.209,264.085v-16.938h-193.82v16.938
			c56.711,0,66.875,14.375,66.875,99.023v135.414c0,84.648-10.164,98.18-66.875,98.18v16.938h175.203
			c87.18,0,135.43-44.867,135.43-104.961c0-58.398-48.25-104.109-135.43-104.109h-48.25v-41.461
			C2547.342,278.46,2557.498,264.085,2614.209,264.085z M2595.592,583.171h-48.25V435.897h48.25
			c47.398,0,69.398,33.008,69.398,72.781C2664.99,549.304,2642.99,583.171,2595.592,583.171"/>
		<path id="path26" inkscape:connector-curvature="0" fill="#403F41" d="M3312.459,326.702l-4.227-15.234
			c-7.609-27.93-16.93-38.086-77.023-38.086h-11.844c-44.016,0-51.633,10.156-51.633,70.25v38.93
			c66.023,0,71.102-5.922,71.102-49.922h16.078v126.109h-16.078c0-44.023-5.078-49.938-71.102-49.938V503.6h46.547
			c60.102,0,69.406-10.156,77.023-38.086l4.242-16.078h13.523l-5.906,79.555h-248.844v-16.078c47.391,0,55.016-10.156,55.016-70.25
			V334.319c0-54.961-6.484-68.813-43.844-70.781c-35.516,5.406-59.898,24.781-93.258,61.484l-38.938,42.305
			c52.477,9.313,80.406,42.32,80.406,79.57c0,46.547-39.766,82.094-114.25,82.094h-148.969v-16.078
			c47.391,0,55.008-10.156,55.008-70.25V334.319c0-60.078-7.617-71.094-55.008-71.094v-16.078h168.43v16.078
			c-47.391,0-55.008,11.016-55.008,71.094v30.469h14.375l93.953-117.641h347.852l5.078,79.555H3312.459z M2863.904,391.038V503.6
			h34.688c38.094,0,55.023-26.234,55.023-56.703c0-29.633-16.93-55.859-55.023-55.859H2863.904"/>
		<path id="path28" inkscape:connector-curvature="0" fill="#403F41" d="M3484.279,236.155c-33.859,0-63.484,17.773-76.18,28.766
			c-4.227-4.234-11.844-16.93-13.539-28.766h-16.078v116.797h16.922c6.781-55.859,45.711-88.867,95.648-88.867
			c27.07,0,49.086,15.234,49.086,40.625c0,21.992-19.477,38.922-54.164,55l-48.242,22.852c-33.859,16.094-59.25,44.023-59.25,81.266
			c0,40.625,38.078,75.32,90.563,75.32c27.93,0,51.617-10.156,66.016-22c4.234,3.383,8.461,12.703,11.008,22.859h16.07v-99.883
			h-17.766c-5.93,39.781-27.93,72.789-72.789,72.789c-23.703,0-45.711-13.539-45.711-34.703c0-22,17.766-33.852,58.406-52.469
			l46.539-22.852c40.641-19.469,56.711-50.797,56.711-76.188C3587.529,273.382,3540.982,236.155,3484.279,236.155"/>
		<path id="path30" inkscape:connector-curvature="0" fill="#403F41" d="M3744.951,236.155c-33.859,0-63.492,17.773-76.18,28.766
			c-4.227-4.234-11.836-16.93-13.539-28.766h-16.078v116.797h16.914c6.781-55.859,45.711-88.867,95.656-88.867
			c27.078,0,49.086,15.234,49.086,40.625c0,21.992-19.469,38.922-54.172,55l-48.234,22.852
			c-33.859,16.094-59.25,44.023-59.25,81.266c0,40.625,38.086,75.32,90.57,75.32c27.93,0,51.617-10.156,66.008-22
			c4.227,3.383,8.461,12.703,11,22.859h16.078v-99.883h-17.766c-5.93,39.781-27.93,72.789-72.781,72.789
			c-23.711,0-45.719-13.539-45.719-34.703c0-22,17.773-33.852,58.406-52.469l46.555-22.852
			c40.625-19.469,56.695-50.797,56.695-76.188C3848.201,273.382,3801.654,236.155,3744.951,236.155"/>
	</g>
</g>
</svg>
